# xmcd
#
# Track frame offsets:
#	187
#	10299
#	26707
#	45511
#	66811
#	80633
#	92210
#	104297
#	113382
#	125671
#	155238
#	165446
#	183076
#	191609
#	202204
#	221960
#
# Disc length: 3337 seconds
#
# Revision: 1
# Processed by: cddbd v1.5.2PL0 Copyright (c) Steve Scherf et al.
# Submitted via: audiograbber 1.83.01
#
DISCID=e00d0710
DTITLE=Christian Bleiming - my blue boogie style
DYEAR=2005
DGENRE=Blues
TTITLE0=the whirlwind boogie
TTITLE1=i don´t want no woman
TTITLE2=battin´ the boogie
TTITLE3=´t ain´t nobody´s business
TTITLE4=evening news
TTITLE5=brandnew boogie dance
TTITLE6=blue basement shuffle
TTITLE7=147 flyer
TTITLE8=straighten up and fly right
TTITLE9=just a dream
TTITLE10=westfalian stomp
TTITLE11=beat-up team
TTITLE12=raintown boogie
TTITLE13=lux´s boogie
TTITLE14=next time you see me
TTITLE15=just a closer walk
EXTD=
EXTT0=
EXTT1=
EXTT2=
EXTT3=
EXTT4=
EXTT5=
EXTT6=
EXTT7=
EXTT8=
EXTT9=
EXTT10=
EXTT11=
EXTT12=
EXTT13=
EXTT14=
EXTT15=
PLAYORDER=
